<svg xmlns="http://www.w3.org/2000/svg" width="600" height="188">)
  <defs>
    <style>
      .a{fill:#77757540;}
      .b,
      .c{fill:none; stroke:#77757540; stroke-width:27px;}
      .b{stroke-linejoin: round;}
      .c{stroke-miterlimit: 10;}
    </style>
  </defs>
  <title>uniform_gpltd</title>
  <rect class="a" x="71.943" y="117" width="27.057" height="27"/>
  <rect class="a" x="72" width="54" height="27"/>
  <rect class="a" x="63" y="54" width="63" height="27"/>
  <rect class="a" x="99" y="81" width="27" height="63"/>
  <rect class="a" x="153.168" width="63.251" height="27"/>
  <rect class="a" x="153.168" y="54" width="63.251" height="27"/>
  <rect class="a" x="153.168" y="81" width="27" height="63"/>
  <rect class="a" x="270.168" width="27" height="90"/>
  <rect class="a" x="270.168" y="117" width="90" height="27"/>
  <rect class="a" x="378.168" y="54" width="27" height="90"/>
  <rect class="a" x="342.168" width="99" height="27"/>
  <rect class="a" x="459.168" width="27" height="54"/>
  <rect class="a" x="459.168" y="90" width="27" height="54"/>
  <rect class="a" x="486.168" width="18" height="27"/>
  <rect class="a" x="486.168" y="117" width="18" height="27"/>
  <path class="b" d="M423.285,373.5a27,27,0,1,1,0,54" transform="translate(-206.866 -360)"/>
  <path class="c" d="M278.809,490.5a58.5,58.5,0,0,1,0-117" transform="translate(-206.866 -360)"/>
  <path class="c" d="M710.437,373.5a58.5,58.5,0,0,1,0,117" transform="translate(-206.866 -360)"/>
</svg>
